<svg xmlns="http://www.w3.org/2000/svg" viewBox="0 0 890.04 527.98"><g id="Layer_2" data-name="Layer 2"><g id="Layer_1-2" data-name="Layer 1"><path d="M76,0q12.81,0,33.58,6.34a14.6,14.6,0,0,0,4,.75c.83,0,3.31-.75,7.46-2.24a11.92,11.92,0,0,1,4.23-.75q8.33,0,17.6,13.19t9.26,25.12a17.3,17.3,0,0,1-4.16,11.75A13,13,0,0,1,137.79,59a14.81,14.81,0,0,1-8.08-2Q126.59,55,116,45.14,101.1,31.22,86.68,31.21q-7,0-11.13,3.36a10.79,10.79,0,0,0-4.17,8.83q0,10.82,19,16.29,25.74,7.59,33,11.07,31.72,15.42,31.72,45.39,0,26.49-21.64,43.28-22.14,17.16-57.83,17.16A160,160,0,0,1,42,172.8q-17.65-3.8-25.49-8.89-6-4-10.76-17.35A77.09,77.09,0,0,1,1,120.5c0-4.06.83-7.12,2.49-9.2a9.57,9.57,0,0,1,7.84-4q4.73,0,9.07,4.85,2.63,2.74,12.32,17.54,4.59,7,14.61,11.56a49,49,0,0,0,20.7,4.6q9.21,0,14.93-3.42t5.72-8.76q0-5-4.48-8.58t-14.55-6.72q-17.79-5.6-27.11-10.26A82.08,82.08,0,0,1,25.12,96.38Q5.47,79,5.47,56.83a47.91,47.91,0,0,1,5.1-21.33A53.26,53.26,0,0,1,25,17.53Q45.88,0,76,0Z"/><path d="M234,58V130.2q0,8.58,1.56,12.56a16.76,16.76,0,0,0,6.28,7.34,21.29,21.29,0,0,1,5.16,4.67,8.56,8.56,0,0,1,1.31,4.91q0,16-40.67,16-21.88,0-34.7-3.48a14.07,14.07,0,0,1-7-4.36,10.52,10.52,0,0,1-2.68-7.08,8.74,8.74,0,0,1,1.37-5.23q1.36-1.86,7-6,3.84-2.85,5.47-9.32T178.7,121q0-4.09-.56-15.36t-.8-13.12q-.75-5.1-7-7.83-7.71-3.36-7.71-10,0-7.83,10.07-11.69A230.63,230.63,0,0,1,202.58,54q15.91-3.73,24.62-3.73Q234,50.24,234,58ZM209.42,3.48q10.82,0,17.16,4t6.34,10.89q0,9.57-9.57,15.17-15.18,8.82-36.69,8.83-9.07,0-14.42-3.49Q165,34.45,165,26.49q0-10.69,15.3-16.79Q195.86,3.49,209.42,3.48Z"/><path d="M316,50.24q7.08,0,7.09,10.07v2.12c-.09,1.33-.13,2.4-.13,3.23q0,6.72,4,6.72,2.12,0,6.59-5.35a48,48,0,0,1,16.91-12.25,50.87,50.87,0,0,1,20.9-4.54q20.76,0,28.85,15.17,3.1,5.59,5.1,5.6,1.36,0,6.46-5,16.17-15.78,36.69-15.79,16,0,26.24,8.83,10.69,9.21,10.69,27.61,0,4-.25,13.43-.24,3.24-.24,19.52,0,10.45-.13,14.68c-.08,1.74-.12,3-.12,3.73a21.12,21.12,0,0,0,5,13.93,49.32,49.32,0,0,1,3.67,4.78,6.41,6.41,0,0,1,.69,3.18q0,15.91-37.44,15.91-16.53,0-26.67-4t-10.14-10.44a8.29,8.29,0,0,1,.69-3.79,83,83,0,0,1,4.78-6.91q3.85-5.1,3.86-33.95,0-16.78-2.36-23.38-2.74-7.83-10.95-7.83a11.27,11.27,0,0,0-7.27,2.55,11.83,11.83,0,0,0-4.17,6.4q-1.11,4.48-1.24,23.88.38,20.89,1.3,25.37t6.29,12.44a8.39,8.39,0,0,1,1.24,4.72q0,14.81-38.68,14.8-23.25,0-31.34-3.48a9.76,9.76,0,0,1-6.46-9.7,8.43,8.43,0,0,1,.81-4.35,49.42,49.42,0,0,1,5.53-5.73,13.26,13.26,0,0,0,3.54-4.91,35.62,35.62,0,0,0,1.19-8.39q.86-13.68.87-27.61,0-24.37-12.44-24.37-9.33,0-11.07,10.44-1.49,9.82-1.49,28.11a175.53,175.53,0,0,0,.56,17.9,25.64,25.64,0,0,0,3.05,8.83q3,5.35,3,8.71,0,8.09-11.32,11.19a102.74,102.74,0,0,1-27.11,3.36q-19.15,0-28.1-3.05t-9-9.63a7.34,7.34,0,0,1,1.19-4.23,36.26,36.26,0,0,1,5.41-5.48q5.59-5.09,6.46-14.05,1.37-15.42,1.37-32,0-11.8-1.18-16.48a13.16,13.16,0,0,0-5-7.52A25.81,25.81,0,0,1,256.86,79a7,7,0,0,1-1.05-4.11q0-8.33,13.05-13.18Q300.33,50.37,316,50.24Z"/><path d="M561.48,50q7.59,0,9.45,1.31c1.25.87,1.87,3,1.87,6.53q0,4.61,3,4.6,1.25,0,8.33-4.73a49.37,49.37,0,0,1,13.62-6,53.61,53.61,0,0,1,15-2.42q15.79,0,28.23,10.94a55.86,55.86,0,0,1,14.67,21,72.82,72.82,0,0,1,5.47,28q0,31.34-21.14,51.61-16.29,15.8-37.06,15.79a53.47,53.47,0,0,1-21.76-5,9.42,9.42,0,0,0-3.61-1c-2.48,0-3.73,2.49-3.73,7.46q0,9.82,6.59,14.18,6.09,4.11,7.28,5.53c.79,1,1.18,2.55,1.18,4.79q0,7.47-8.33,11.5t-23.51,4q-27,0-47.25-10.82-10.32-5.48-10.32-13.56a8.84,8.84,0,0,1,1.55-5.66q1.56-1.92,6-4,6.47-3,7.9-10.82t2.17-45q-.87-30.59-2.23-34.32a2.71,2.71,0,0,0-1.43-1.62,57.4,57.4,0,0,0-6.16-1.36,10.87,10.87,0,0,1-6.47-3.67,10.47,10.47,0,0,1-2.48-7,12.6,12.6,0,0,1,3.48-8.77q3.48-3.78,11.32-7.4Q543.57,50.24,561.48,50Zm12.31,47-1.86,34.2c-.09,1.41-.13,2.78-.13,4.1a7.27,7.27,0,0,0,3.36,6.22c2.24,1.58,5.22,2.36,9,2.36q17.17,0,17.17-28.23,0-18.27-7.22-25.74a14.42,14.42,0,0,0-10.69-4.6Q574.54,85.31,573.79,97Z"/><path d="M741.06,74.62v39.91q0,26.49.8,30.85t6.16,6.71q4.61,2,6.16,3.73a7.26,7.26,0,0,1,1.55,5,11.14,11.14,0,0,1-2.92,7.46A15.62,15.62,0,0,1,745,173q-9,2.75-30.22,2.74-24,0-33.7-3.61a16.65,16.65,0,0,1-7.34-5,11,11,0,0,1-2.86-7.15,6.38,6.38,0,0,1,1.55-4.61c1-1.07,3.3-2.36,6.78-3.85q4.85-2.11,6-11.57,2-16.16,2-46,0-30.35-1.74-39a18.64,18.64,0,0,0-8.71-12.93q-5.22-3-7.15-5.66a10.9,10.9,0,0,1-1.93-6.53q0-6.09,5.85-10.63t18.65-8.4a191.23,191.23,0,0,1,22.26-5q13.68-2.35,19.9-2.36,9.82,0,9.83,12.18,0,4-1.25,18.29Q741.3,56.09,741.06,74.62Z"/><path d="M878,117.52H819.53q-3.85,0-3.86,3.36,0,8.09,8.77,15.23t18.84,7.15a44.08,44.08,0,0,0,13.24-2.3,43,43,0,0,0,12-5.66q4.23-3,6.72-3c2.15,0,4.27,1.33,6.34,4a13.22,13.22,0,0,1,3.11,8.21q0,8.94-11.19,17.28-19.77,14.81-45.64,14.8-26.11,0-43.78-15.17a62.3,62.3,0,0,1-14.17-18,63,63,0,0,1-7.34-29.6,60.48,60.48,0,0,1,12.68-37.56,66.7,66.7,0,0,1,27.86-21.51,70,70,0,0,1,27.48-5.35q23.64,0,40.17,13.43a53.65,53.65,0,0,1,13.43,15.92Q890,89.16,890,99.11q0,8.08-3.36,13.25T878,117.52ZM822.76,94.26h12.56q7.95,0,8-7.33a15.63,15.63,0,0,0-3.86-11,13,13,0,0,0-10.07-4.22,12.78,12.78,0,0,0-10.94,5.47,17.34,17.34,0,0,0-3.73,10.32q0,3.74,1.8,5.22C817.68,93.77,819.78,94.26,822.76,94.26Z"/><path d="M146,319.06V432.6q0,9.69.81,12.43c.53,1.83,2.05,3.61,4.54,5.35a23.23,23.23,0,0,1,6,5.47,10.23,10.23,0,0,1,1.55,5.72q0,10-20,15.17a145.21,145.21,0,0,1-36.06,4.6q-4,0-5.17-1.18c-.78-.79-1.3-2.67-1.55-5.66-.42-4.22-1.91-6.34-4.48-6.34-1.41,0-3.6,1.25-6.59,3.73a43.6,43.6,0,0,1-28.23,10.32q-19.28,0-34.69-14.3A70,70,0,0,1,7.46,448.14,64,64,0,0,1,0,418.67a65.21,65.21,0,0,1,9.7-33.83,60.61,60.61,0,0,1,24.37-23.13Q47,355,59.57,355a51.62,51.62,0,0,1,25.86,6.46,6.86,6.86,0,0,0,3,1q4,0,4-10.7c0-3.06-.73-5.41-2.18-7s-4-3-7.77-4.17q-7.83-2.49-7.83-8.7,0-9.09,18-14.18,31.83-8.83,42.65-8.83T146,319.06ZM78.47,381.61q-8.09,0-12.81,8.58-6.34,11.44-6.34,30.09,0,16.92,6.09,25.5A13.71,13.71,0,0,0,77.23,452q8.08,0,11.75-9.39t3.67-30.28q0-19.15-4.36-25.5A11.69,11.69,0,0,0,78.47,381.61Z"/><path d="M281.18,423.14H222.73q-3.85,0-3.86,3.36,0,8.08,8.77,15.24t18.84,7.15a44.39,44.39,0,0,0,13.24-2.3,43.24,43.24,0,0,0,12-5.66q4.23-3,6.72-3,3.24,0,6.34,4a13.24,13.24,0,0,1,3.11,8.21q0,9-11.19,17.29-19.77,14.79-45.64,14.79-26.12,0-43.78-15.17a62,62,0,0,1-14.17-18,63.1,63.1,0,0,1-7.34-29.6,60.42,60.42,0,0,1,12.69-37.55,66.69,66.69,0,0,1,27.85-21.52A70.14,70.14,0,0,1,233.8,355q23.63,0,40.16,13.43a53.61,53.61,0,0,1,13.43,15.91q5.85,10.46,5.85,20.4,0,8.08-3.36,13.24T281.18,423.14ZM226,399.89h12.56q8,0,8-7.34a15.62,15.62,0,0,0-3.86-10.94,13,13,0,0,0-10.07-4.23,12.81,12.81,0,0,0-10.94,5.47,17.34,17.34,0,0,0-3.73,10.32q0,3.74,1.8,5.23C220.88,399.39,223,399.89,226,399.89Z"/><path d="M351.07,355q6.21,0,20.27,2.73a28.74,28.74,0,0,0,4.72.5q2.12,0,8.21-2.24a13.71,13.71,0,0,1,4.85-1.12q5.72,0,11.57,7.34A54.77,54.77,0,0,1,408.4,375q3,7,3,12.06a10.91,10.91,0,0,1-3.48,8.27,12.17,12.17,0,0,1-8.71,3.3,14.47,14.47,0,0,1-7.77-2.12q-3.42-2.11-11-9.32-7.95-7.71-13.18-7.72a8.71,8.71,0,0,0-8.58,8.59q0,6.09,11.69,11.44,21,9.45,32.21,20.64A31.46,31.46,0,0,1,412,443.29q0,17.29-15.17,28.85-13.05,10.08-32,10.07a170.45,170.45,0,0,1-17.66-1.61q-12.06-1.37-13.55-1.37a21.7,21.7,0,0,0-3.74.37,43.6,43.6,0,0,1-5.22.5q-5.85,0-9.2-3-5.1-4.61-9.45-14.49t-4.35-17q0-11.43,8.95-11.44a10.14,10.14,0,0,1,6.4,2.3q2.93,2.31,12.25,12.25a44.93,44.93,0,0,0,8.46,7.53,13.65,13.65,0,0,0,7.21,2,9.65,9.65,0,0,0,6.59-2.18,7.29,7.29,0,0,0,2.49-5.78q0-5.6-9.57-10.2-20-9.82-28.92-20.27a36.09,36.09,0,0,1-8.89-24.12,38.13,38.13,0,0,1,9.08-25.5Q328.68,355,351.07,355Z"/><path d="M491.84,363.58v72.25q0,8.58,1.55,12.56a16.88,16.88,0,0,0,6.28,7.34,21.58,21.58,0,0,1,5.17,4.66,8.58,8.58,0,0,1,1.3,4.91q0,16.05-40.66,16-21.9,0-34.7-3.48a14.13,14.13,0,0,1-7-4.35,10.56,10.56,0,0,1-2.67-7.09,8.62,8.62,0,0,1,1.37-5.22c.91-1.24,3.23-3.24,7-6q3.85-2.87,5.47-9.33t1.62-19.27q0-4.11-.56-15.36t-.81-13.12c-.49-3.4-2.82-6-7-7.84q-7.71-3.35-7.71-9.94,0-7.85,10.07-11.7a228.61,228.61,0,0,1,29.85-9.07q15.92-3.74,24.62-3.73Q491.84,355.87,491.84,363.58Zm-24.62-54.47q10.81,0,17.16,4T490.72,324q0,9.59-9.57,15.17Q466,348,444.46,348q-9.07,0-14.43-3.48-7.2-4.49-7.21-12.44,0-10.69,15.3-16.78Q453.66,309.11,467.22,309.11Z"/><path d="M645.67,348.28c2.07,0,3.9,1.18,5.47,3.54a14.54,14.54,0,0,1,2.37,8.27,26.82,26.82,0,0,1-3.17,11.57A32.09,32.09,0,0,1,642.69,382q-2.87,2.49-2.86,4c0,.25.08,1.25.25,3a33.38,33.38,0,0,1,.37,4.72q0,14.81-10,24.87-9,9-23.07,13.93a92.69,92.69,0,0,1-31,5,65.41,65.41,0,0,1-8.08-.5,46.22,46.22,0,0,0-5-.37q-6.6,0-6.59,6.59c0,2.82,1.43,5,4.29,6.65s6.73,2.42,11.62,2.42a114.67,114.67,0,0,0,14.68-1.36Q607.74,448,617.44,448q14.67,0,22.76,4.85a27.3,27.3,0,0,1,10.26,10.44,28.87,28.87,0,0,1,3.79,14.43q0,12.56-9.2,24.37Q634.1,516,612.84,522.76,596.17,528,574.29,528q-27.62,0-44.77-8.46a34.35,34.35,0,0,1-12.68-10.44,22.44,22.44,0,0,1-4.73-13.43,16.11,16.11,0,0,1,2.67-9,15.13,15.13,0,0,1,6.78-5.84c2.49-1,3.73-2.07,3.73-3.24,0-.91-1-2.23-3.11-4q-9.95-8.33-9.94-17.28,0-6,4.78-12.31a32.77,32.77,0,0,1,11.88-9.83c2-1,3-2,3-3q0-1.74-3.73-5.23-12.81-11.81-12.81-27.6a30.6,30.6,0,0,1,4.54-15.92,40.29,40.29,0,0,1,12.63-12.93,79.48,79.48,0,0,1,44.39-13.06A107.53,107.53,0,0,1,598.54,359c7.54,1.5,12.73,2.24,15.54,2.24q13.56,0,27-10.69Q644.05,348.29,645.67,348.28ZM551,487.19c-2.08,0-3.11,1.2-3.11,3.61q0,7.33,8,11.87t20.65,4.54q12.18,0,19.09-3.23t6.9-9.08a6.66,6.66,0,0,0-2.61-5.29,9.77,9.77,0,0,0-6.47-2.17,45.17,45.17,0,0,0-5.72.5,99.18,99.18,0,0,1-15.54,1.11,113.75,113.75,0,0,1-12.19-.62,54.89,54.89,0,0,1-7.09-1A10.13,10.13,0,0,0,551,487.19ZM578.15,374a12.22,12.22,0,0,0-10,4.73q-3.79,4.72-3.79,12.56,0,13.43,4.11,21.51t10.81,8.09a12.46,12.46,0,0,0,10.45-5q3.85-5,3.86-13.49,0-13.31-4.05-20.71T578.15,374Z"/><path d="M811.57,400.88l1.74,43.78c.16,3.32.68,5.76,1.55,7.34s3.42,4.6,7.65,9.07a7.91,7.91,0,0,1,1.87,5.6q0,8.2-9.83,11.44t-35.07,3.23q-17.16,0-24.25-3-7.34-3.11-7.33-10.07a7,7,0,0,1,.74-3.67,63.28,63.28,0,0,1,5-5.78q5-5.23,5-34.83,0-17.16-4-25.36-3.24-6.6-11.94-6.6-8.32,0-11.44,5.35t-3.11,19.4v24.62q0,7.35.94,10.08t6.15,10.57a9.59,9.59,0,0,1,1.37,5.1q0,7.33-10.2,10.82t-31.83,3.48q-34.57,0-34.58-14.3a8.12,8.12,0,0,1,1.06-4.54,22.37,22.37,0,0,1,5-4.42,10.26,10.26,0,0,0,4.1-5.41q.87-3,1.62-15,.87-14.18.87-29.72,0-8.58-1.31-11.26t-7.52-6.53q-5.36-3.35-5.35-8.2a9.68,9.68,0,0,1,4.35-8.15q4.36-3.16,17.91-8,11.94-4.23,23-7.15t15.17-2.92a8.25,8.25,0,0,1,6.28,2.73,9.18,9.18,0,0,1,2.55,6.47c0,.25,0,1.29-.13,3.11a14.68,14.68,0,0,0-.12,1.74q0,6,5,6,3,0,6.35-4.73,10.7-15.42,31.09-15.42,15.66,0,26.86,8.21a31.63,31.63,0,0,1,10.94,13.74Q810.82,385.6,811.57,400.88Z"/></g></g></svg>