<svg xmlns="http://www.w3.org/2000/svg" viewBox="0 0 936.28 920.58"><defs><style>.cls-1{fill:none;stroke:#000;stroke-miterlimit:10;}</style></defs><g id="Layer_2" data-name="Layer 2"><g id="Layer_1-2" data-name="Layer 1"><path class="cls-1" d="M530.77,479.82a72.13,72.13,0,0,1-82.5,60,73.36,73.36,0,0,1-61-83.9,74.61,74.61,0,0,1,85.34-62.07,75.89,75.89,0,0,1,63.12,86.8,77.18,77.18,0,0,1-88.28,64.2,78.5,78.5,0,0,1-65.29-89.79,79.83,79.83,0,0,1,91.31-66.41A81.2,81.2,0,0,1,541,481.53a82.6,82.6,0,0,1-94.46,68.7,84,84,0,0,1-69.88-96.08,85.43,85.43,0,0,1,97.72-71.06,86.89,86.89,0,0,1,72.28,99.38A88.37,88.37,0,0,1,445.58,556a89.88,89.88,0,0,1-74.77-102.8,91.43,91.43,0,0,1,104.56-76.05,93,93,0,0,1,77.35,106.35,94.58,94.58,0,0,1-108.17,78.66,96.17,96.17,0,0,1-80-110,97.83,97.83,0,0,1,111.88-81.37,99.49,99.49,0,0,1,82.76,113.8,101.18,101.18,0,0,1-115.73,84.17A102.91,102.91,0,0,1,357.85,451,104.66,104.66,0,0,1,477.57,364a106.46,106.46,0,0,1,88.56,121.76,108.28,108.28,0,0,1-123.85,90.07,110.13,110.13,0,0,1-91.61-126,112,112,0,0,1,128.11-93.17A113.93,113.93,0,0,1,573.55,487,115.88,115.88,0,0,1,441,583.33a117.85,117.85,0,0,1-98-134.79,119.85,119.85,0,0,1,137.08-99.69A121.9,121.9,0,0,1,581.49,488.27,124,124,0,0,1,439.68,591.4,126.1,126.1,0,0,1,334.79,447.18,128.26,128.26,0,0,1,481.48,340.49,130.45,130.45,0,0,1,590,489.69,132.67,132.67,0,0,1,438.24,600,134.94,134.94,0,0,1,326,445.71,137.23,137.23,0,0,1,483,331.56,139.58,139.58,0,0,1,599.07,491.2,142,142,0,0,1,436.7,609.29,144.39,144.39,0,0,1,316.6,444.15,146.85,146.85,0,0,1,484.56,322,149.37,149.37,0,0,1,608.8,492.82,151.92,151.92,0,0,1,435.05,619.18,154.5,154.5,0,0,1,306.54,442.47,157.13,157.13,0,0,1,486.26,311.76,159.82,159.82,0,0,1,619.2,494.56,162.55,162.55,0,0,1,433.29,629.77,165.33,165.33,0,0,1,295.77,440.68,168.16,168.16,0,0,1,488.09,300.81a171,171,0,0,1,142.25,195.6A173.93,173.93,0,0,1,431.4,641.09,176.89,176.89,0,0,1,284.25,438.76,179.93,179.93,0,0,1,490,289.09,183,183,0,0,1,642.26,498.4c-16,101.53-111.34,170.85-212.88,154.81C326.11,636.91,255.62,540,271.92,436.7c16.59-105,115.17-176.73,220.21-160.15C599,293.42,671.88,393.69,655,500.52,637.86,609.17,535.87,683.34,427.22,666.18,316.72,648.74,241.28,545,258.73,434.51,276.48,322.12,382,245.39,494.36,263.14c114.31,18.05,192.34,125.34,174.3,239.65C650.3,619.05,541.17,698.42,424.91,680.06c-118.24-18.67-199-129.66-180.3-247.9,19-120.27,131.88-202.37,252.14-183.38C619.07,268.1,702.57,382.91,683.26,505.23c-19.65,124.4-136.42,209.33-260.82,189.68-126.53-20-212.91-138.74-192.93-265.27C249.83,301,370.62,213.1,499.31,233.42,630.2,254.09,719.55,376.94,698.88,507.83c-21,133.12-146,224-279.09,203C284.4,689.43,192,562.34,213.35,427c21.74-137.71,151-231.71,288.7-210C642.1,239.1,737.71,370.56,715.6,510.61,693.11,653.06,559.4,750.3,417,727.81,272.08,704.93,173.18,568.94,196.05,424.07,219.32,276.72,357.63,176.13,505,199.39c149.87,23.67,252.17,164.34,228.51,314.2C709.42,666,566.35,770.07,413.93,746c-155-24.47-260.86-170-236.38-325,24.89-157.67,172.89-265.3,330.57-240.41C668.48,205.89,778,356.42,752.63,516.78c-25.75,163.1-178.85,274.45-341.95,248.69C244.8,739.28,131.55,583.57,157.75,417.69c26.64-168.72,185-283.9,353.72-257.26,171.6,27.1,288.74,188.17,261.65,359.76C745.56,694.72,581.74,813.86,407.21,786.31c-177.5-28-298.68-194.65-270.65-372.15,28.5-180.54,198-303.79,378.5-275.28,183.62,29,309,201.35,280,385C765.55,710.6,590.25,838.09,403.5,808.6c-189.94-30-319.61-208.28-289.62-398.22,30.51-193.18,211.84-325.06,405-294.56,196.48,31,330.61,215.45,299.59,411.93-31.55,199.84-219.13,336.26-419,304.7-203.24-32.09-342-222.87-309.9-426.11C122.26,199.62,316.3,58.5,523,91.14c210.25,33.2,353.77,230.55,320.58,440.79C809.82,745.77,609.11,891.74,395.27,858,177.79,823.64,29.32,619.5,63.66,402,98.59,180.81,306.21,29.81,527.41,64.74c225,35.52,378.56,246.69,343,471.67-36.12,228.81-250.9,385-479.72,348.88C158,848.55-.87,630.1,35.88,397.38,73.25,160.69,295.43-.89,532.12,36.48c240.73,38,405.07,264,367.06,504.71C860.52,786,630.7,953.18,385.85,914.52c-249-39.32-419-273.06-379.7-522.09,40-253.27,277.73-426.17,531-386.18C794.75,46.92,970.6,288.72,929.93,546.32"/></g></g></svg>