<svg xmlns="http://www.w3.org/2000/svg" viewBox="0 0 828.35 258.19"><defs><style>.cls-1{fill:#ffdeaf;}.cls-2{fill:none;stroke:#ffdeaf;stroke-miterlimit:10;}</style></defs><g id="Layer_2" data-name="Layer 2"><g id="Layer_1-2" data-name="Layer 1"><path class="cls-1" d="M0,3H24l6.21,44.89c1.32,10.29,2.64,20.59,4,31.15h.53c1.85-10.56,3.83-21,5.81-31.15L50.56,3H70.49L80.65,47.92c2,10,3.7,20.59,5.68,31.15H87c1.19-10.56,2.51-21,3.7-31.15L97.15,3h22.31l-17,98.35H72.73L63.89,58.61c-1.58-7.53-2.9-15.45-3.83-22.84h-.53c-1.32,7.39-2.5,15.31-4,22.84L47,101.38H17.82Z"/><path class="cls-1" d="M132.79,3H195.1V22.7H156.42V40.92h32.87v19.8H156.42V81.58h40.13v19.8H132.79Z"/><path class="cls-1" d="M216,3h34.32c20.33,0,36.57,5.55,36.57,24.43,0,8.71-4.89,18.21-12.81,21.25v.53c9.9,2.64,17.43,10,17.43,23.1,0,20.06-17,29-38.42,29H216Zm33.4,39.08c10,0,14.52-4.36,14.52-11.09,0-7-4.62-9.9-14.52-9.9h-9.77v21Zm2,41.18c11.35,0,17.16-4.09,17.16-12.54,0-8-5.68-11.35-17.16-11.35H239.58V83.29Z"/><path class="cls-1" d="M337.92,3h28.24c30,0,49.77,14.52,49.77,48.71s-19.8,49.64-48.45,49.64H337.92Zm26.79,79.34c15.84,0,27.06-7.26,27.06-30.63s-11.22-29.83-27.06-29.83h-3.17V82.37Z"/><path class="cls-1" d="M434.14,3h62.31V22.7H457.77V40.92h32.87v19.8H457.77V81.58H497.9v19.8H434.14Z"/><path class="cls-1" d="M511.1,89.1l13.46-16.24c6.87,5.94,16,10,23.76,10,8.71,0,12.81-3.3,12.81-8.58,0-5.68-5.42-7.53-13.86-11.09L534.73,58c-10.3-4.09-19.94-12.67-19.94-26.93,0-16.5,14.79-29.7,35.64-29.7a45.7,45.7,0,0,1,32,12.93L570.63,29c-6.47-4.88-12.54-7.53-20.2-7.53-7.26,0-11.61,2.91-11.61,8.06,0,5.54,6.07,7.65,14.78,11.09l12.28,4.88c12.14,4.88,19.4,13.07,19.4,26.93,0,16.37-13.73,30.76-37.49,30.76A55,55,0,0,1,511.1,89.1Z"/><path class="cls-1" d="M643.36,52.8c0-32.74,22-51.48,48.31-51.48a43.38,43.38,0,0,1,31.42,12.8L710.68,29.17c-4.88-4.35-10-7.66-18.22-7.66-14.52,0-24.94,11.36-24.94,30.5,0,19.53,8.71,30.89,27.06,30.89,3.43,0,7.12-.93,9.24-2.51V64.55H688.24V45.28h36.57V91.21c-6.87,6.6-19,12-32.74,12C664.88,103.23,643.36,86.06,643.36,52.8Z"/><path class="cls-1" d="M744.6,3h24l24.42,47.13,9.63,21.78h.66c-1.19-10.43-3.17-24.55-3.17-36.3V3h22.45v98.35h-24L774.3,54l-9.63-21.52H764c1,11,3,24.42,3,36.3v32.61H744.6Z"/><path class="cls-1" d="M9.37,118.63H33v78.54H71.28V217H9.37Z"/><path class="cls-1" d="M88.31,118.63h23.63V217H88.31Z"/><path class="cls-1" d="M602.51,0h23.63V98.34H602.51Z"/><path class="cls-1" d="M134.51,118.63h23.62v38.94h.4l27.85-38.94h25.88l-29.7,39.47L217.8,217H192.06l-23.23-40.26-10.7,14.52V217H134.51Z"/><path class="cls-1" d="M228,118.63h62.31V138.3H251.59v18.22h32.87v19.8H251.59v20.85h40.13V217H228Z"/><path class="cls-1" d="M359.43,118.63h28.25L418.17,217H393.36l-5.68-22.57h-29L353,217h-24Zm3.7,57.55h20.06l-2.11-8.31c-2.64-9.77-5.15-21.52-7.79-31.55h-.53c-2.37,10.3-5,21.78-7.52,31.55Z"/><path class="cls-2" d="M444.22,118.63h25.2l6.51,63.47c1.39,14.56,2.77,29.12,4.16,44.05h.55c1.94-14.93,4-29.68,6.1-44.05l10.52-63.47h20.92l10.66,63.47c2.08,14.18,3.88,29.12,6,44.05h.69c1.25-14.93,2.63-29.68,3.88-44.05l6.78-63.47h23.41L551.69,257.69H520.53l-9.28-60.47c-1.66-10.64-3.05-21.84-4-32.3h-.55c-1.38,10.46-2.63,21.66-4.15,32.3l-9,60.47H462.91Z"/><path class="cls-2" d="M602.52,118.63h29.64l32,139.06h-26l-6-31.92H601.69l-6,31.92h-25.2ZM606.4,200h21.05l-2.22-11.76c-2.77-13.82-5.4-30.43-8.17-44.62h-.55c-2.5,14.56-5.27,30.8-7.9,44.62Z"/><path class="cls-2" d="M658.75,118.63h26.18L696.7,182.1c3,14.93,5.12,29.12,8,44.42h.69c3.05-15.3,5.13-29.49,8-44.42l11.63-63.47H750.3L719.41,257.69H689.63Z"/><path class="cls-2" d="M761,118.63h65.37v27.81H785.75V172.2h34.49v28H785.75v29.49h42.1v28H761Z"/></g></g></svg>