<svg width="120" height="20" viewBox="0 0 120 20" fill="none" xmlns="http://www.w3.org/2000/svg">
<path d="M0 0H120V20H0V0Z" fill="white" fill-opacity="0.01"/>
<path d="M46.5662 5.81274C43.1759 5.81274 40.5186 8.26282 40.5186 11.393V11.4335C40.5186 14.5412 43.1579 16.9732 46.5257 16.9732C49.8935 16.9732 52.5733 14.5231 52.5733 11.393V11.3524C52.5733 8.24481 49.9339 5.81274 46.5662 5.81274ZM49.5113 11.4335C49.5113 13.1179 48.3018 14.2934 46.5662 14.2934C44.8306 14.2934 43.5761 13.0459 43.5761 11.393V11.3524C43.5761 9.66802 44.7856 8.49252 46.5212 8.49252C48.2568 8.49252 49.5113 9.74008 49.5113 11.393V11.4335Z" fill="#161C1C"/>
<path d="M67.5057 5.81274C64.3628 5.81274 61.9932 8.21328 61.9932 11.393V11.4335C61.9932 14.6447 64.4392 16.9732 67.8115 16.9732C69.7179 16.9732 71.2512 16.3021 72.3618 14.9735L72.3888 14.942L70.5363 13.3657L70.5093 13.3882C69.637 14.1673 68.8906 14.4691 67.8519 14.4691C66.4985 14.4691 65.5678 13.798 65.2261 12.582L65.1946 12.4649H72.8834V12.4289C72.9059 12.1721 72.9283 11.8794 72.9283 11.6317C72.9283 7.33954 70.0057 5.81274 67.5012 5.81274H67.5057ZM65.1586 10.5508L65.1856 10.4382C65.5003 9.09153 66.4131 8.31687 67.6946 8.31687C68.976 8.31687 69.8933 9.10954 70.1451 10.4427L70.1631 10.5553H65.1586V10.5508Z" fill="#161C1C"/>
<path d="M87.6453 5.81274C84.255 5.81274 81.5977 8.26282 81.5977 11.393V11.4335C81.5977 14.5412 84.237 16.9732 87.6048 16.9732C90.9726 16.9732 93.6524 14.5231 93.6524 11.393V11.3524C93.6524 8.24481 91.0131 5.81274 87.6453 5.81274ZM90.5904 11.4335C90.5904 13.1179 89.3809 14.2934 87.6453 14.2934C85.9097 14.2934 84.6552 13.0459 84.6552 11.393V11.3524C84.6552 9.66802 85.8647 8.49252 87.6003 8.49252C89.3359 8.49252 90.5904 9.74008 90.5904 11.393V11.4335Z" fill="#161C1C"/>
<path d="M98.5261 2.26807H95.3022V16.8424H98.5261V2.26807Z" fill="#161C1C"/>
<path d="M104.178 6.72681H100.977V16.8424H104.178V6.72681Z" fill="#161C1C"/>
<path d="M111.993 5.81274C108.603 5.81274 105.945 8.26282 105.945 11.393V11.4335C105.945 14.5412 108.585 16.9732 111.952 16.9732C115.32 16.9732 118 14.5231 118 11.393V11.3524C118 8.24481 115.361 5.81274 111.993 5.81274ZM114.938 11.4335C114.938 13.1179 113.729 14.2934 111.993 14.2934C110.257 14.2934 109.003 13.0459 109.003 11.393V11.3524C109.003 9.66802 110.212 8.49252 111.948 8.49252C113.684 8.49252 114.938 9.74008 114.938 11.393V11.4335Z" fill="#161C1C"/>
<path d="M58.4098 13.8338L58.3514 13.7527C58.2884 13.6491 58.185 13.4014 58.185 12.9105V8.78051H60.4782V6.24036H58.1805V3.35791H55.2174V6.23585H53.4009V8.77601H55.2174V13.7392C55.2174 16.0091 56.1437 16.9775 58.3109 16.9775C59.3855 16.9775 60.2758 16.8153 60.8109 16.5226H60.8289V13.9644C59.48 14.2572 58.6661 14.2121 58.4008 13.8338H58.4098Z" fill="#161C1C"/>
<path d="M78.7468 2.00236C77.6182 2.0384 76.8808 2.31763 76.2018 2.97069C75.6038 3.54718 75.3026 4.42092 75.3026 5.5784V6.23145H73.6929V8.77611H75.3026V16.838H78.432V8.78062H81.022V6.24046H78.3916V5.74954C78.3916 5.13252 78.7873 4.73618 79.5067 4.6371C80.0417 4.56954 80.7027 4.64611 81.0444 4.72267V2.25458L81.0175 2.24557C80.388 2.05191 79.691 1.97534 78.7558 2.00687L78.7468 2.00236Z" fill="#161C1C"/>
<path d="M102.573 5.32172C103.479 5.32172 104.214 4.58573 104.214 3.67783C104.214 2.76993 103.479 2.03394 102.573 2.03394C101.666 2.03394 100.932 2.76993 100.932 3.67783C100.932 4.58573 101.666 5.32172 102.573 5.32172Z" fill="#161C1C"/>
<path d="M34.3901 5.60107C33.1896 5.60107 32.1959 5.93886 31.4315 6.60092L31.2786 6.73604V5.94336H28.0322V16.8471H31.2786V10.9786C31.2786 10.177 31.4809 9.57795 31.8811 9.19062C32.3083 8.77627 32.8748 8.56008 33.5178 8.56008C34.1608 8.56008 34.7588 8.77176 35.1185 9.10505C35.4737 9.42932 35.6491 9.91573 35.6491 10.5463V16.8561H38.9674V10.213C38.9674 8.80329 38.5447 7.68184 37.7039 6.87115C36.8721 6.07398 35.6626 5.61459 34.3856 5.61459L34.3901 5.60107Z" fill="#161C1C"/>
<path d="M20.766 8.24022C20.7481 8.2132 20.7121 8.19518 20.6671 8.19518H14.2643C13.8596 8.19518 13.6932 8.00152 13.8596 7.6232L15.9684 2.84014C15.9864 2.79961 15.9864 2.75907 15.9684 2.73205C15.9504 2.70052 15.9145 2.68701 15.8695 2.68701H5.41993C5.3345 2.68701 5.24008 2.75007 5.2041 2.82663L1.01349 12.3342C0.995504 12.3747 0.995504 12.4153 1.01349 12.4468C1.03147 12.4738 1.06745 12.4918 1.11241 12.4918H7.5647C7.94689 12.4918 8.11775 12.6405 7.94239 13.0233L5.81561 17.8424C5.79763 17.8829 5.79763 17.9234 5.81561 17.955C5.8336 17.982 5.86957 18 5.91453 18H16.3641C16.4046 18 16.4495 17.9865 16.49 17.9595C16.5305 17.9324 16.5619 17.8964 16.5754 17.8604L20.766 8.35282C20.784 8.31228 20.784 8.27175 20.766 8.24022Z" fill="#1ECAD3"/>
</svg>
