<svg width="20" height="20" viewBox="0 0 20 20" fill="none" xmlns="http://www.w3.org/2000/svg">
<rect width="20" height="20" fill="white" fill-opacity="0.01"/>
<path d="M11.1531 10.0001C11.1531 12.7615 8.88021 15 6.07663 15C3.27305 15 1 12.7615 1 10.0001C1 7.2387 3.27287 5 6.07663 5C8.88038 5 11.1531 7.2387 11.1531 10.0001Z" fill="#2C3030"/>
<path d="M16.7221 10C16.7221 12.5993 15.5857 14.7072 14.1838 14.7072C12.7819 14.7072 11.6455 12.5993 11.6455 10C11.6455 7.40079 12.7818 5.29285 14.1836 5.29285C15.5855 5.29285 16.722 7.40012 16.722 10" fill="#2C3030"/>
<path d="M19 10C19 12.3283 18.6004 14.2169 18.1073 14.2169C17.6142 14.2169 17.2147 12.3288 17.2147 10C17.2147 7.67125 17.6143 5.78314 18.1073 5.78314C18.6002 5.78314 19 7.67108 19 10Z" fill="#2C3030"/>
</svg>
