<svg xmlns="http://www.w3.org/2000/svg" width="20" height="20" viewBox="0 0 20 20">
    <g fill="none" fill-rule="evenodd">
        <g>
            <g>
                <g>
                    <path fill="#FFF" fill-opacity="0" d="M0 0H20V20H0z" transform="translate(-1516 -1052) translate(0 1044) translate(1516 8)"/>
                    <g>
                        <path fill="#1D1D1D" d="M0 2.656L8.865.177c.266-.074.542.081.617.347.012.044.018.09.018.135v1.997H0zM11.2 3.4c.22 0 .4.18.4.4v12.881H.4c-.22 0-.4-.179-.4-.4V3.8c0-.22.18-.4.4-.4h10.8z" transform="translate(-1516 -1052) translate(0 1044) translate(1516 8) translate(4 1.5)"/>
                        <path stroke="#FFF" stroke-linecap="round" d="M3.273 8.5L8.727 8.5M3.273 11.5L8.727 11.5" transform="translate(-1516 -1052) translate(0 1044) translate(1516 8) translate(4 1.5)"/>
                        <path fill="#FFF" d="M12.5 13.5L8.5 17.5 12.5 17.5" transform="translate(-1516 -1052) translate(0 1044) translate(1516 8) translate(4 1.5)"/>
                    </g>
                </g>
            </g>
        </g>
    </g>
</svg>
