<svg xmlns="http://www.w3.org/2000/svg" width="20" height="20" viewBox="0 0 20 20">
    <g fill="none" fill-rule="evenodd">
        <g>
            <g>
                <g>
                    <path fill="#FFF" fill-opacity="0" d="M0 0H20V20H0z" transform="translate(-1633 -1052) translate(0 1044) translate(1633 8)"/>
                    <path fill="#1D1D1D" d="M18.333 4.94c-.614.272-1.271.456-1.963.54.706-.423 1.25-1.094 1.504-1.892-.66.392-1.391.678-2.172.83-.625-.668-1.515-1.085-2.497-1.085-1.89 0-3.419 1.533-3.419 3.423 0 .268.029.53.089.78-2.843-.141-5.365-1.504-7.05-3.578-.293.506-.463 1.095-.463 1.72 0 1.187.604 2.236 1.523 2.85-.562-.013-1.092-.169-1.55-.427v.043c0 1.66 1.179 3.04 2.743 3.355-.286.078-.59.12-.9.12-.22 0-.435-.021-.643-.064.434 1.36 1.699 2.35 3.196 2.377-1.169.919-2.645 1.466-4.248 1.466-.276 0-.548-.018-.816-.05 1.511.982 3.309 1.548 5.237 1.548 6.294 0 9.734-5.217 9.734-9.741 0-.149-.003-.297-.01-.442.667-.484 1.246-1.088 1.705-1.773" transform="translate(-1633 -1052) translate(0 1044) translate(1633 8)"/>
                </g>
            </g>
        </g>
    </g>
</svg>
