<svg xmlns="http://www.w3.org/2000/svg" xmlns:xlink="http://www.w3.org/1999/xlink" width="20" height="20" viewBox="0 0 20 20">
    <defs>
        <path id="il4hv87ala" d="M0 0.005L16.596 0.005 16.596 16.601 0 16.601z"/>
    </defs>
    <g fill="none" fill-rule="evenodd">
        <g>
            <g>
                <g>
                    <path fill="#FFF" fill-opacity="0" d="M0 0H20V20H0z" transform="translate(-1569 -1052) translate(0 1044) translate(1569 8)"/>
                    <g transform="translate(-1569 -1052) translate(0 1044) translate(1569 8) translate(1.667 1.694)">
                        <mask id="64a7ezo4ab" fill="#fff">
                            <use xlink:href="#il4hv87ala"/>
                        </mask>
                        <path fill="#1D1D1D" d="M8.298.005c-2.254 0-2.536.01-3.421.05-.884.04-1.487.18-2.015.386-.545.212-1.008.496-1.47.957-.46.461-.744.924-.956 1.47C.23 3.395.09 3.998.05 4.882.01 5.767 0 6.049 0 8.303c0 2.254.01 2.536.05 3.421.04.883.18 1.487.386 2.014.212.546.495 1.009.957 1.47.461.461.924.745 1.47.957.527.205 1.13.346 2.014.386.885.04 1.167.05 3.42.05 2.254 0 2.537-.01 3.422-.05.883-.04 1.486-.18 2.014-.386.546-.212 1.009-.496 1.47-.957.461-.461.745-.924.957-1.47.205-.527.345-1.13.386-2.014.04-.885.05-1.167.05-3.421 0-2.254-.01-2.536-.05-3.421-.04-.883-.18-1.487-.386-2.014-.212-.546-.496-1.009-.957-1.47-.461-.461-.924-.745-1.47-.957-.528-.205-1.13-.346-2.014-.386-.885-.04-1.168-.05-3.421-.05m0 1.495c2.215 0 2.478.009 3.353.049.809.037 1.248.172 1.54.285.388.151.664.33.955.621.29.29.47.567.62.954.114.293.25.732.286 1.541.04.875.048 1.137.048 3.353s-.008 2.478-.048 3.353c-.037.81-.172 1.248-.286 1.54-.15.388-.33.665-.62.955-.29.29-.567.47-.954.62-.293.114-.732.25-1.541.286-.875.04-1.137.049-3.353.049s-2.478-.009-3.353-.049c-.81-.037-1.249-.172-1.541-.285-.387-.15-.664-.33-.954-.621-.29-.29-.47-.567-.62-.954-.114-.293-.25-.732-.287-1.541-.04-.875-.048-1.137-.048-3.353s.009-2.478.048-3.353c.037-.809.173-1.248.286-1.54.15-.388.33-.665.62-.955.291-.29.568-.47.955-.62.292-.114.732-.25 1.54-.286.876-.04 1.138-.049 3.354-.049" mask="url(#64a7ezo4ab)"/>
                    </g>
                    <path fill="#1D1D1D" d="M9.964 12.763c-1.527 0-2.765-1.238-2.765-2.766 0-1.527 1.238-2.766 2.765-2.766 1.528 0 2.766 1.239 2.766 2.766 0 1.528-1.238 2.766-2.766 2.766m0-7.027c-2.353 0-4.26 1.908-4.26 4.261 0 2.354 1.907 4.261 4.26 4.261 2.354 0 4.261-1.907 4.261-4.26 0-2.354-1.907-4.262-4.26-4.262M15.39 5.568c0 .55-.446.996-.996.996s-.996-.446-.996-.996.446-.996.996-.996.996.446.996.996" transform="translate(-1569 -1052) translate(0 1044) translate(1569 8)"/>
                </g>
            </g>
        </g>
    </g>
</svg>
