<svg xmlns="http://www.w3.org/2000/svg" xmlns:xlink="http://www.w3.org/1999/xlink" width="20" height="20" viewBox="0 0 20 20">
    <defs>
        <path id="7ob51itj6a" d="M0 0L8.859 0 8.859 16.667 0 16.667z"/>
    </defs>
    <g fill="none" fill-rule="evenodd">
        <g>
            <g>
                <g>
                    <path fill="#FFF" fill-opacity="0" d="M0 0H20V20H0z" transform="translate(-1601 -1052) translate(0 1044) translate(1601 8)"/>
                    <g transform="translate(-1601 -1052) translate(0 1044) translate(1601 8) translate(5.833 1.667)">
                        <mask id="brsozggxxb" fill="#fff">
                            <use xlink:href="#7ob51itj6a"/>
                        </mask>
                        <path fill="#1D1D1D" d="M7.865 8.839L8.3 5.995H5.572V4.15c0-.778.382-1.537 1.604-1.537h1.24V.193S7.29 0 6.214 0C3.967 0 2.498 1.362 2.498 3.828v2.167H0V8.84h2.498v6.875c.5.078 1.014.12 1.537.12.523 0 1.037-.042 1.537-.12V8.839h2.293z" mask="url(#brsozggxxb)"/>
                    </g>
                </g>
            </g>
        </g>
    </g>
</svg>
