<svg width="20" height="20" viewBox="0 0 20 20" fill="none" xmlns="http://www.w3.org/2000/svg">
<rect width="20" height="20" fill="white" fill-opacity="0.01"/>
<path d="M16.3259 18H3.67413C2.74961 18 2 17.1933 2 16.1983V8.11316C2 7.78151 2.32483 7.56638 2.59969 7.7098L9.63769 11.349C9.86257 11.4655 10.1291 11.4655 10.3623 11.349L17.4003 7.71876C17.6752 7.57535 18 7.79047 18 8.12213V16.2073C18 17.2022 17.2504 18 16.3342 18H16.3259Z" fill="#2C3030"/>
<path d="M9.82923 10.0134L2.79956 6.6521C2.48306 6.49972 2.47473 6.01569 2.7829 5.84538L9.99581 2L17.1921 5.83641C17.5086 6.00672 17.5002 6.49972 17.1754 6.6521L10.1707 10.0045C10.0624 10.0583 9.93751 10.0583 9.82923 10.0045V10.0134Z" fill="#2C3030"/>
<path d="M13.9521 8.4V6.7507C13.9521 6.49972 13.7605 6.30252 13.5357 6.30252H6.63093C6.39772 6.30252 6.21448 6.49972 6.21448 6.7507V8.48964" stroke="white" stroke-width="1.2" stroke-miterlimit="10" stroke-linecap="round"/>
</svg>
