<svg xmlns="http://www.w3.org/2000/svg" xmlns:xlink="http://www.w3.org/1999/xlink" width="20" height="20" viewBox="0 0 20 20">
    <defs>
        <path id="mvpmxmejma" d="M0 0.216L13.092 0.216 13.092 12.418 0 12.418z"/>
        <path id="m5tuu51abc" d="M0.297 0.262L3.555 0.262 3.555 3.973 0.297 3.973z"/>
    </defs>
    <g fill="none" fill-rule="evenodd">
        <g>
            <g>
                <g>
                    <path fill="#FFF" fill-opacity="0" d="M0 0H20V20H0z" transform="translate(-1718 -1052) translate(0 1044) translate(1718 8)"/>
                    <g>
                        <g transform="translate(-1718 -1052) translate(0 1044) translate(1718 8) translate(3.333 .833) translate(0 3.986)">
                            <mask id="3yzgydwrob" fill="#fff">
                                <use xlink:href="#mvpmxmejma"/>
                            </mask>
                            <path fill="#1D1D1D" d="M10.935 4.884c-.02-2.037 1.661-3.014 1.736-3.063C11.727.44 10.255.251 9.731.229 8.478.1 7.286.966 6.651.966 6.02.966 5.038.247 4 .266 2.634.285 1.376 1.06.673 2.281c-1.418 2.46-.363 6.105 1.02 8.101.675.976 1.48 2.075 2.537 2.034 1.019-.04 1.403-.659 2.634-.659 1.232 0 1.578.66 2.655.639 1.095-.02 1.79-.995 2.46-1.975.775-1.133 1.095-2.231 1.114-2.287-.025-.01-2.136-.82-2.158-3.251" mask="url(#3yzgydwrob)"/>
                        </g>
                        <g transform="translate(-1718 -1052) translate(0 1044) translate(1718 8) translate(3.333 .833) translate(6.21 .065)">
                            <mask id="4xg8pne8zd" fill="#fff">
                                <use xlink:href="#m5tuu51abc"/>
                            </mask>
                            <path fill="#1D1D1D" d="M2.702 2.829c.56-.68.94-1.626.836-2.567C2.73.295 1.751.8 1.17 1.479.65 2.083.195 3.043.317 3.967c.902.07 1.822-.459 2.385-1.138" mask="url(#4xg8pne8zd)"/>
                        </g>
                    </g>
                </g>
            </g>
        </g>
    </g>
</svg>
