<svg xmlns="http://www.w3.org/2000/svg" viewBox="0 0 1551.43 193.31"><g id="Layer_2" data-name="Layer 2"><g id="Layer_1-2" data-name="Layer 1"><path d="M65.19,0Q76.34,0,94.38,5.51a12.52,12.52,0,0,0,3.46.65q1.08,0,6.49-1.94A10.22,10.22,0,0,1,108,3.57q7.23,0,15.29,11.46t8.06,21.84a15,15,0,0,1-3.62,10.21,11.28,11.28,0,0,1-8.82,4.17,12.85,12.85,0,0,1-7-1.73q-2.7-1.74-11.9-10.27Q87,27.13,74.49,27.14q-6.06,0-9.68,2.92a9.37,9.37,0,0,0-3.62,7.67q0,9.41,16.54,14.16,22.38,6.6,28.65,9.63Q134,74.92,134,101q0,23-18.81,37.62Q95.9,153.53,64.87,153.52a139,139,0,0,1-29.19-3.3q-15.36-3.28-22.17-7.73Q8.32,139,4.16,127.41A67.09,67.09,0,0,1,0,104.76q0-5.3,2.16-8A8.32,8.32,0,0,1,9,93.3q4.11,0,7.9,4.22,2.26,2.37,10.7,15.24,4,6.06,12.7,10.06a42.74,42.74,0,0,0,18,4q8,0,13-3t5-7.62a9.35,9.35,0,0,0-3.89-7.46q-3.9-3.14-12.65-5.84Q44.22,98.06,36.11,94A71,71,0,0,1,21,83.79Q3.89,68.66,3.89,49.41A41.69,41.69,0,0,1,8.32,30.87,46.34,46.34,0,0,1,20.87,15.24Q39,0,65.19,0Z"/><path d="M202.6,50.38v62.81q0,7.47,1.36,10.92a14.56,14.56,0,0,0,5.46,6.38,18.42,18.42,0,0,1,4.48,4.06,7.44,7.44,0,0,1,1.14,4.27q0,14-35.36,13.94-19,0-30.16-3a12.25,12.25,0,0,1-6.11-3.79,9.16,9.16,0,0,1-2.32-6.16,7.5,7.5,0,0,1,1.19-4.54q1.18-1.62,6.05-5.19,3.34-2.49,4.76-8.11t1.4-16.76q0-3.56-.48-13.35t-.71-11.4q-.65-4.44-6.05-6.81-6.7-2.92-6.7-8.65,0-6.81,8.75-10.17a200.41,200.41,0,0,1,25.95-7.89q13.84-3.24,21.41-3.24Q202.6,43.68,202.6,50.38ZM181.2,3q9.41,0,14.92,3.51T201.63,16q0,8.33-8.32,13.19-13.2,7.68-31.9,7.68-7.89,0-12.54-3Q142.6,29.94,142.6,23q0-9.3,13.3-14.6Q169.42,3,181.2,3Z"/><path d="M273.85,43.68q6.16,0,6.16,8.76v1.83c-.07,1.16-.1,2.09-.1,2.81,0,3.9,1.15,5.84,3.46,5.84q1.83,0,5.73-4.65a41.78,41.78,0,0,1,14.7-10.65A44.23,44.23,0,0,1,322,43.68Q340,43.68,347,56.87c1.81,3.24,3.28,4.86,4.44,4.86q1.18,0,5.62-4.32Q371.16,43.69,389,43.68q14,0,22.81,7.67,9.3,8,9.3,24,0,3.47-.21,11.68c-.15,1.88-.22,7.53-.22,17q0,9.08-.11,12.75c-.07,1.52-.11,2.6-.11,3.25a18.29,18.29,0,0,0,4.33,12.1,42.58,42.58,0,0,1,3.19,4.17,5.53,5.53,0,0,1,.59,2.75q0,13.85-32.54,13.84-14.38,0-23.19-3.46T364,140.33a7.4,7.4,0,0,1,.59-3.3q.6-1.12,4.16-6,3.36-4.42,3.36-29.51,0-14.59-2.06-20.33-2.37-6.81-9.51-6.81a9.82,9.82,0,0,0-6.33,2.22,10.33,10.33,0,0,0-3.62,5.57q-1,3.89-1.08,20.75.33,18.17,1.14,22.06t5.46,10.81a7.26,7.26,0,0,1,1.08,4.11q0,12.87-33.63,12.86-20.22,0-27.24-3a8.49,8.49,0,0,1-5.62-8.44,7.34,7.34,0,0,1,.7-3.78,43.45,43.45,0,0,1,4.81-5,11.59,11.59,0,0,0,3.08-4.27,31.3,31.3,0,0,0,1-7.3q.75-11.9.76-24,0-21.2-10.82-21.19-8.1,0-9.62,9.08-1.29,8.53-1.29,24.43a154.14,154.14,0,0,0,.48,15.57,22.63,22.63,0,0,0,2.65,7.68q2.6,4.65,2.6,7.56,0,7-9.84,9.74a89.77,89.77,0,0,1-23.57,2.91q-16.65,0-24.44-2.64t-7.78-8.38a6.37,6.37,0,0,1,1-3.68,31.85,31.85,0,0,1,4.7-4.76q4.86-4.43,5.62-12.21Q232,107.68,232,93.3,232,83,231,79a11.34,11.34,0,0,0-4.37-6.54,22.06,22.06,0,0,1-4.17-3.79,6.08,6.08,0,0,1-.92-3.57q0-7.23,11.36-11.46Q260.23,43.8,273.85,43.68Z"/><path d="M487.27,43.46q6.59,0,8.21,1.14c1.09.75,1.63,2.65,1.63,5.67q0,4,2.59,4c.72,0,3.14-1.37,7.24-4.11a43.11,43.11,0,0,1,11.84-5.24,47,47,0,0,1,13-2.11,36.16,36.16,0,0,1,24.54,9.52A48.58,48.58,0,0,1,569.11,70.6a63.35,63.35,0,0,1,4.76,24.32q0,27.26-18.38,44.87-14.18,13.72-32.22,13.73a46.47,46.47,0,0,1-18.92-4.32,8.22,8.22,0,0,0-3.14-.87q-3.24,0-3.24,6.49,0,8.53,5.73,12.32A40.31,40.31,0,0,1,510,172a6.64,6.64,0,0,1,1,4.17q0,6.48-7.24,10t-20.43,3.51q-23.47,0-41.09-9.4-9-4.77-9-11.79a7.71,7.71,0,0,1,1.35-4.92,15.17,15.17,0,0,1,5.24-3.51q5.63-2.59,6.87-9.41t1.89-39.13q-.75-26.61-1.94-29.84a2.36,2.36,0,0,0-1.25-1.41A46.72,46.72,0,0,0,440.13,79a9.36,9.36,0,0,1-5.62-3.19,9.11,9.11,0,0,1-2.16-6.11,10.92,10.92,0,0,1,3-7.62q3-3.3,9.84-6.43Q471.7,43.68,487.27,43.46ZM498,84.33l-1.62,29.73c-.07,1.23-.11,2.42-.11,3.57a6.31,6.31,0,0,0,2.92,5.4,13.27,13.27,0,0,0,7.78,2.06q14.93,0,14.92-24.54,0-15.9-6.27-22.38a12.49,12.49,0,0,0-9.29-4Q498.62,74.17,498,84.33Z"/><path d="M643.38,64.87v34.7q0,23,.71,26.81c.46,2.53,2.25,4.47,5.35,5.84a16.19,16.19,0,0,1,5.35,3.25,6.28,6.28,0,0,1,1.35,4.32,9.68,9.68,0,0,1-2.54,6.49,13.69,13.69,0,0,1-6.76,4.11q-7.79,2.37-26.27,2.37-20.87,0-29.3-3.13a14.68,14.68,0,0,1-6.38-4.38,9.55,9.55,0,0,1-2.48-6.22,5.55,5.55,0,0,1,1.35-4q1.35-1.4,5.89-3.35,4.22-1.83,5.19-10.05,1.73-14.05,1.73-40,0-26.38-1.51-33.95a16.24,16.24,0,0,0-7.57-11.25,19.82,19.82,0,0,1-6.22-4.91,9.45,9.45,0,0,1-1.67-5.68q0-5.3,5.08-9.24t16.21-7.3A164.23,164.23,0,0,1,620.25,5q11.88-2.05,17.29-2,8.55,0,8.55,10.59,0,3.47-1.09,15.9Q643.61,48.76,643.38,64.87Z"/><path d="M762.42,102.17H711.6q-3.35,0-3.35,2.92,0,7,7.62,13.24t16.38,6.22a38.68,38.68,0,0,0,11.52-2,37.93,37.93,0,0,0,10.43-4.92c2.45-1.73,4.39-2.6,5.84-2.6,1.87,0,3.71,1.16,5.51,3.46a11.51,11.51,0,0,1,2.7,7.14q0,7.78-9.73,15-17.19,12.85-39.67,12.86-22.71,0-38.06-13.19a53.93,53.93,0,0,1-12.32-15.68,54.71,54.71,0,0,1-6.38-25.73,52.54,52.54,0,0,1,11-32.65,58.06,58.06,0,0,1,24.22-18.7,60.87,60.87,0,0,1,23.89-4.65q20.55,0,34.92,11.68a46.53,46.53,0,0,1,11.68,13.84,36.15,36.15,0,0,1,5.08,17.73q0,7-2.92,11.51C768,100.67,765.51,102.17,762.42,102.17ZM714.41,82h10.92q6.93,0,6.92-6.38a13.58,13.58,0,0,0-3.35-9.51,11.29,11.29,0,0,0-8.76-3.68,11.13,11.13,0,0,0-9.51,4.76,15.08,15.08,0,0,0-3.24,9c0,2.16.52,3.68,1.56,4.54S711.82,82,714.41,82Z"/><path d="M961.67,11.68v98.7q0,8.45.7,10.81t4,4.65a20.21,20.21,0,0,1,5.24,4.76,8.86,8.86,0,0,1,1.35,5q0,8.66-17.4,13.19a126.27,126.27,0,0,1-31.36,4c-2.3,0-3.8-.34-4.48-1s-1.14-2.33-1.35-4.92c-.37-3.68-1.66-5.52-3.9-5.52-1.22,0-3.13,1.09-5.73,3.25a37.94,37.94,0,0,1-24.54,9q-16.75,0-30.16-12.43a61,61,0,0,1-12.76-17.19,55.69,55.69,0,0,1-6.49-25.62,56.72,56.72,0,0,1,8.44-29.41,52.71,52.71,0,0,1,21.19-20.11,47.84,47.84,0,0,1,22.16-5.84A45,45,0,0,1,909,48.54a6,6,0,0,0,2.59.87q3.46,0,3.46-9.3A8.87,8.87,0,0,0,913.18,34q-1.89-2.1-6.76-3.62-6.81-2.16-6.81-7.57,0-7.89,15.68-12.32Q943,2.81,952.37,2.81T961.67,11.68ZM903,66.06q-7,0-11.13,7.46-5.52,9.95-5.52,26.16,0,14.7,5.3,22.16a11.89,11.89,0,0,0,10.27,5.41q7,0,10.22-8.16t3.19-26.33q0-16.65-3.79-22.16A10.15,10.15,0,0,0,903,66.06Z"/><path d="M1079.19,102.17h-50.81q-3.36,0-3.36,2.92,0,7,7.63,13.24a25.41,25.41,0,0,0,16.38,6.22,38.67,38.67,0,0,0,11.51-2,37.79,37.79,0,0,0,10.43-4.92q3.67-2.59,5.84-2.6c1.87,0,3.71,1.16,5.51,3.46a11.46,11.46,0,0,1,2.71,7.14q0,7.78-9.73,15-17.19,12.85-39.68,12.86-22.71,0-38.06-13.19a53.93,53.93,0,0,1-12.32-15.68,54.71,54.71,0,0,1-6.38-25.73,52.55,52.55,0,0,1,11-32.65,58,58,0,0,1,24.21-18.7,60.92,60.92,0,0,1,23.9-4.65q20.54,0,34.92,11.68a46.68,46.68,0,0,1,11.68,13.84q5.07,9.07,5.08,17.73,0,7-2.92,11.51T1079.19,102.17Zm-48-20.22h10.92q6.92,0,6.92-6.38a13.54,13.54,0,0,0-3.36-9.51,11.28,11.28,0,0,0-8.75-3.68,11.14,11.14,0,0,0-9.52,4.76,15.08,15.08,0,0,0-3.24,9c0,2.16.52,3.68,1.57,4.54S1028.59,82,1031.19,82Z"/><path d="M1140,42.92q5.4,0,17.62,2.38a24.7,24.7,0,0,0,4.11.43q1.83,0,7.13-1.94a12,12,0,0,1,4.22-1q5,0,10.06,6.38a47.48,47.48,0,0,1,6.7,11.14,27.34,27.34,0,0,1,2.59,10.48,9.48,9.48,0,0,1-3,7.19,10.59,10.59,0,0,1-7.57,2.87A12.56,12.56,0,0,1,1175,79q-3-1.83-9.57-8.11-6.92-6.7-11.46-6.7a7.58,7.58,0,0,0-7.46,7.46q0,5.29,10.17,9.95,18.27,8.2,28,17.94a27.38,27.38,0,0,1,8.21,20.11q0,15-13.19,25.08-11.34,8.76-27.78,8.76a148.1,148.1,0,0,1-15.35-1.4q-10.49-1.2-11.79-1.19a18.5,18.5,0,0,0-3.24.32,37.23,37.23,0,0,1-4.54.43q-5.08,0-8-2.59-4.44-4-8.22-12.6T1097,121.74q0-9.94,7.78-9.95a8.82,8.82,0,0,1,5.57,2A136.37,136.37,0,0,1,1121,124.44a39.1,39.1,0,0,0,7.35,6.54,11.82,11.82,0,0,0,6.27,1.78,8.39,8.39,0,0,0,5.73-1.89,6.34,6.34,0,0,0,2.16-5q0-4.86-8.32-8.86-17.42-8.53-25.14-17.62a31.44,31.44,0,0,1-7.73-21,33.15,33.15,0,0,1,7.89-22.16Q1120.49,42.92,1140,42.92Z"/><path d="M1262.33,50.38v62.81q0,7.47,1.35,10.92a14.56,14.56,0,0,0,5.46,6.38,18.51,18.51,0,0,1,4.49,4.06,7.44,7.44,0,0,1,1.14,4.27q0,14-35.36,13.94-19,0-30.16-3a12.25,12.25,0,0,1-6.11-3.79,9.16,9.16,0,0,1-2.32-6.16,7.5,7.5,0,0,1,1.19-4.54q1.18-1.62,6-5.19,3.35-2.49,4.76-8.11t1.4-16.76q0-3.56-.48-13.35t-.71-11.4q-.65-4.44-6-6.81-6.7-2.92-6.7-8.65,0-6.81,8.75-10.17a199.94,199.94,0,0,1,26-7.89q13.85-3.24,21.41-3.24Q1262.33,43.68,1262.33,50.38ZM1240.93,3q9.4,0,14.92,3.51t5.51,9.46q0,8.33-8.32,13.19-13.2,7.68-31.9,7.68-7.89,0-12.54-3-6.27-3.9-6.27-10.81,0-9.3,13.3-14.6Q1229.15,3,1240.93,3Z"/><path d="M1396.07,37.08q2.7,0,4.76,3.08a12.76,12.76,0,0,1,2.05,7.19,23.28,23.28,0,0,1-2.76,10.06,27.61,27.61,0,0,1-6.64,9c-1.66,1.44-2.49,2.6-2.49,3.46,0,.22.07,1.08.21,2.6a28.72,28.72,0,0,1,.33,4.1,29.57,29.57,0,0,1-8.65,21.63,52.64,52.64,0,0,1-20.06,12.11,80.72,80.72,0,0,1-27,4.32,56.35,56.35,0,0,1-7-.43,39.77,39.77,0,0,0-4.32-.33q-5.73,0-5.73,5.73,0,3.68,3.73,5.79t10.11,2.11a100.09,100.09,0,0,0,12.75-1.19q17.73-2.49,26.17-2.49,12.75,0,19.78,4.22a23.73,23.73,0,0,1,8.92,9.08,25.06,25.06,0,0,1,3.3,12.54q0,10.92-8,21.19-9.51,12.1-28,18Q1353,193.3,1334,193.31q-24,0-38.92-7.35a30,30,0,0,1-11-9.09,19.5,19.5,0,0,1-4.1-11.67,14,14,0,0,1,2.32-7.79,13.06,13.06,0,0,1,5.89-5.08c2.16-.86,3.25-1.8,3.25-2.81,0-.79-.91-2-2.71-3.46q-8.64-7.25-8.65-15,0-5.19,4.17-10.7a28.44,28.44,0,0,1,10.32-8.54c1.73-.87,2.6-1.73,2.6-2.6s-1.09-2.52-3.25-4.54q-11.13-10.26-11.13-24a26.56,26.56,0,0,1,3.94-13.84,35.08,35.08,0,0,1,11-11.24,69.13,69.13,0,0,1,38.59-11.35,93,93,0,0,1,18.81,2.16q9.84,1.95,13.52,1.95,11.78,0,23.46-9.3C1393.8,37.73,1395.13,37.08,1396.07,37.08ZM1313.8,157.85c-1.81,0-2.71,1-2.71,3.13q0,6.38,6.92,10.33t18,3.94q10.59,0,16.59-2.81t6-7.89a5.77,5.77,0,0,0-2.27-4.6,8.47,8.47,0,0,0-5.62-1.89,42.23,42.23,0,0,0-5,.43,85.44,85.44,0,0,1-13.52,1,100.31,100.31,0,0,1-10.59-.54,47.24,47.24,0,0,1-6.16-.87A9.46,9.46,0,0,0,1313.8,157.85Zm23.56-98.39a10.61,10.61,0,0,0-8.7,4.11q-3.3,4.11-3.3,10.92,0,11.67,3.57,18.7t9.41,7a10.84,10.84,0,0,0,9.08-4.38q3.35-4.38,3.35-11.73,0-11.56-3.51-18C1344.91,61.82,1341.62,59.61,1337.36,59.46Z"/><path d="M1540.29,82.81l1.52,38.06a15.23,15.23,0,0,0,1.35,6.38q1.13,2.06,6.65,7.89a6.87,6.87,0,0,1,1.62,4.87q0,7.13-8.54,9.94t-30.49,2.81q-14.93,0-21.08-2.59-6.39-2.7-6.38-8.76a6.06,6.06,0,0,1,.65-3.19,54.86,54.86,0,0,1,4.32-5q4.32-4.55,4.33-30.28,0-14.91-3.46-22-2.82-5.73-10.38-5.73-7.25,0-10,4.65t-2.7,16.86v21.41q0,6.38.81,8.76t5.35,9.19a8.32,8.32,0,0,1,1.19,4.43q0,6.38-8.87,9.41t-27.67,3q-30.06,0-30.06-12.43a7.07,7.07,0,0,1,.92-3.95,19.63,19.63,0,0,1,4.38-3.84,8.94,8.94,0,0,0,3.57-4.7c.5-1.76,1-6.11,1.4-13q.76-12.33.76-25.84,0-7.47-1.14-9.79t-6.54-5.67q-4.65-2.92-4.65-7.14a8.43,8.43,0,0,1,3.79-7.08q3.78-2.76,15.57-7,10.38-3.67,20-6.22t13.19-2.54a7.16,7.16,0,0,1,5.46,2.38,8,8,0,0,1,2.21,5.62c0,.21,0,1.12-.1,2.7a11,11,0,0,0-.11,1.51q0,5.19,4.32,5.19c1.73,0,3.57-1.36,5.52-4.1q9.29-13.41,27-13.41,13.64,0,23.36,7.14a27.43,27.43,0,0,1,9.51,11.94Q1539.64,69.52,1540.29,82.81Z"/></g></g></svg>