<svg xmlns="http://www.w3.org/2000/svg" viewBox="0 0 240.46 264.23"><defs><style>.cls-1{fill:none;stroke:#fff;stroke-miterlimit:10;}</style></defs><g id="Layer_2" data-name="Layer 2"><g id="Layer_1-2" data-name="Layer 1"><path class="cls-1" d="M135.38,263.73c-19.13,0-36.94-3-52.95-8.89A128,128,0,0,1,39,228.5,118.17,118.17,0,0,1,10.16,187,129.44,129.44,0,0,1,.5,137C.5,115.64,4,96.27,10.89,79.44A125.48,125.48,0,0,1,40.76,35.21,122.43,122.43,0,0,1,84.59,8.57a144.56,144.56,0,0,1,48-8.07A163.71,163.71,0,0,1,174,5.55,144.22,144.22,0,0,1,207.69,18.7l32.16,18L223.34,84.15H238.1V217.89l-11.75,12.66c-5.55,6-12.61,11.14-21.58,15.79a147.23,147.23,0,0,1-21.51,8.89,191.79,191.79,0,0,1-22.59,5.92A131.33,131.33,0,0,1,135.38,263.73Z"/></g></g></svg>