<svg xmlns="http://www.w3.org/2000/svg" viewBox="0 0 150.6 176.23"><defs><style>.cls-1{fill:none;stroke:#fff;stroke-miterlimit:10;}</style></defs><g id="Layer_2" data-name="Layer 2"><g id="Layer_1-2" data-name="Layer 1"><path class="cls-1" d="M150.1,156.62a35.36,35.36,0,0,1-9.56,6.64,103.06,103.06,0,0,1-15,6.18A148,148,0,0,1,108.15,174a87.18,87.18,0,0,1-16.77,1.75q-21,0-37.75-6.18A83.88,83.88,0,0,1,25,152.31,74.39,74.39,0,0,1,6.79,126.09,85.43,85.43,0,0,1,.5,93q0-23.54,7.11-40.9A81.31,81.31,0,0,1,27,23.22,78.42,78.42,0,0,1,55.14,6.09,100.35,100.35,0,0,1,88.58.5a119.46,119.46,0,0,1,30.29,3.61,99.45,99.45,0,0,1,23.3,9L131.22,44.54A67.7,67.7,0,0,0,120,39.88,130.83,130.83,0,0,0,105.82,36,63.93,63.93,0,0,0,93,34.52,79.65,79.65,0,0,0,68.31,38,46.7,46.7,0,0,0,50.25,48.5,44.18,44.18,0,0,0,39.18,65.86,71.06,71.06,0,0,0,35.45,90a54.1,54.1,0,0,0,4.2,21.78,46.33,46.33,0,0,0,11.76,16.43,51,51,0,0,0,18,10.25,71.49,71.49,0,0,0,23,3.5,78,78,0,0,0,13.28-1.05,32.24,32.24,0,0,0,10.25-3.38V116.77H86.25V84.15H150.1Z"/></g></g></svg>