<svg xmlns="http://www.w3.org/2000/svg" viewBox="0 0 119.07 174.29"><defs><style>.cls-1{fill:#fff;}</style></defs><g id="Layer_2" data-name="Layer 2"><g id="Layer_1-2" data-name="Layer 1"><path class="cls-1" d="M106.25,42.41a129,129,0,0,0-19.92-8.86,58.43,58.43,0,0,0-19-3.49q-11,0-17.24,4.43T43.81,47.77A14.93,14.93,0,0,0,48.58,58.6a46.11,46.11,0,0,0,12.35,8.51,169.55,169.55,0,0,0,15.73,6.76,129.78,129.78,0,0,1,14.8,6.64,55.49,55.49,0,0,1,13.16,9.55,42,42,0,0,1,9.32,14.21q3.5,8.52,3.5,20.86a46,46,0,0,1-6.76,24.23q-6.77,11.19-19.8,18.06t-32.16,6.87a103.71,103.71,0,0,1-19.92-2A102.12,102.12,0,0,1,0,155.89l14.91-26.33a81.6,81.6,0,0,0,13.17,7.8,78.65,78.65,0,0,0,14.33,5.24,53.1,53.1,0,0,0,13.28,1.87,44.51,44.51,0,0,0,12.23-1.75,22.48,22.48,0,0,0,10.26-5.94q4.06-4.2,4.07-11.65a14.49,14.49,0,0,0-3.37-9.32,35.06,35.06,0,0,0-9.09-7.69,74.33,74.33,0,0,0-12.47-6.06q-7.92-3-16.31-7A83.94,83.94,0,0,1,25.28,85.4,44,44,0,0,1,13.4,71.19Q8.85,62.68,8.85,50.33q0-14.91,6.65-25.86A47.08,47.08,0,0,1,34.25,7.11Q46.37.7,62.21,0,83,0,95.89,4.89a118.43,118.43,0,0,1,23.18,11.65Z"/></g></g></svg>