<svg xmlns="http://www.w3.org/2000/svg" viewBox="0 0 116.97 171.5"><defs><style>.cls-1{fill:#009ee2;}</style></defs><g id="Layer_2" data-name="Layer 2"><g id="Layer_1-2" data-name="Layer 1"><path class="cls-1" d="M50.33,0Q77.12,0,93,10.83t15.85,32.28q0,15.84-7.81,26.44A46.72,46.72,0,0,1,79.81,85.4Q66.4,90.65,49.17,90.64L43.81,72.47q21.19,0,37.63,5.82t26,16.66a38,38,0,0,1,9.55,26q0,14-5,23.66A42.6,42.6,0,0,1,98.45,160.2a57.72,57.72,0,0,1-19.23,8.62,90.68,90.68,0,0,1-22.13,2.68H0V0Zm4,70.14q10,0,14.8-6.06a21.64,21.64,0,0,0,4.78-13.75q0-8.85-6-13.28T52,32.62H33.79V70.14ZM55.46,140a43.33,43.33,0,0,0,13.51-2,19.86,19.86,0,0,0,9.56-6.29A16.63,16.63,0,0,0,82,120.93q0-7.46-4.19-11.3A23.52,23.52,0,0,0,67,104.27a62.77,62.77,0,0,0-13.86-1.51H33.79V140Z"/></g></g></svg>