<svg xmlns="http://www.w3.org/2000/svg" viewBox="0 0 139.11 175.24"><defs><style>.cls-1{fill:#fff;}</style></defs><g id="Layer_2" data-name="Layer 2"><g id="Layer_1-2" data-name="Layer 1"><path class="cls-1" d="M139.11,159.15a65.21,65.21,0,0,1-10.37,6.29,94.8,94.8,0,0,1-18.52,7A85.36,85.36,0,0,1,86,175.23q-20.26-.48-36.23-7.34a79.24,79.24,0,0,1-27-18.76A82.36,82.36,0,0,1,5.83,121.87,91.89,91.89,0,0,1,0,89,104.13,104.13,0,0,1,5.94,53.13a82,82,0,0,1,17-28.2A76.74,76.74,0,0,1,49.4,6.52,86.4,86.4,0,0,1,83.42,0q17.24,0,30.52,4.66a105.68,105.68,0,0,1,21.67,10L122.33,46.6a96.82,96.82,0,0,0-15.49-9.2,49.72,49.72,0,0,0-22.26-4.78A44.75,44.75,0,0,0,65.83,36.7,48.84,48.84,0,0,0,50,48.23,56.21,56.21,0,0,0,39.15,65.59a57.38,57.38,0,0,0-4,21.56,67.55,67.55,0,0,0,3.61,22.6,50,50,0,0,0,10.37,17.59,45.69,45.69,0,0,0,16.19,11.3,54.46,54.46,0,0,0,21.32,4q13.75,0,23.54-4.42t14.91-9.32Z"/></g></g></svg>