<svg xmlns="http://www.w3.org/2000/svg" viewBox="0 0 172.6 198.23"><defs><style>.cls-1{fill:none;stroke:#fff;stroke-miterlimit:10;}</style></defs><g id="Layer_2" data-name="Layer 2"><g id="Layer_1-2" data-name="Layer 1"><path class="cls-1" d="M102.38,197.73c-15.22,0-29.2-2.31-41.55-6.85a95.43,95.43,0,0,1-32.36-19.52A85.62,85.62,0,0,1,7.63,141.31,96.74,96.74,0,0,1,.5,104C.5,87,3.17,71.79,8.43,58.94a92.62,92.62,0,0,1,22-32.72A89.74,89.74,0,0,1,62.5,6.71,111.91,111.91,0,0,1,99.58.5a130.93,130.93,0,0,1,33.08,4,110.92,110.92,0,0,1,25.89,10l8,4.51L148.31,71.5l-11.43-6.34a58,58,0,0,0-9.32-3.85,120.37,120.37,0,0,0-13-3.51A52.77,52.77,0,0,0,104,56.52a69.16,69.16,0,0,0-21.29,2.95,35.72,35.72,0,0,0-13.89,8,33,33,0,0,0-8.3,13.11A60.78,60.78,0,0,0,57.45,101a43.63,43.63,0,0,0,3.29,17.41,35.35,35.35,0,0,0,9,12.59,39.89,39.89,0,0,0,14.14,8,60.78,60.78,0,0,0,19.44,2.92,67.3,67.3,0,0,0,11.4-.89c.39-.06.77-.14,1.13-.21v-2.07H86.25V84.15H172.1v87.79l-2.94,3.16c-2.92,3.14-7,6.06-12.56,8.93A113.44,113.44,0,0,1,140,190.88a156.63,156.63,0,0,1-18.67,4.89A98.06,98.06,0,0,1,102.38,197.73Z"/></g></g></svg>