<svg xmlns="http://www.w3.org/2000/svg" viewBox="0 0 194.6 220.23"><defs><style>.cls-1{fill:none;stroke:#fff;stroke-miterlimit:10;}</style></defs><g id="Layer_2" data-name="Layer 2"><g id="Layer_1-2" data-name="Layer 1"><path class="cls-1" d="M113.38,219.73c-16.53,0-31.78-2.54-45.35-7.53A106.3,106.3,0,0,1,32,190.41a96.59,96.59,0,0,1-23.5-33.88A107.61,107.61,0,0,1,.5,115C.5,96.51,3.44,80,9.25,65.77a103.76,103.76,0,0,1,24.6-36.56,100.82,100.82,0,0,1,36-21.88A122.81,122.81,0,0,1,110.58.5a141.93,141.93,0,0,1,35.88,4.33,122.15,122.15,0,0,1,28.47,11.06l16.08,9L170.38,84.15H194.1V187.26l-5.88,6.32c-3.79,4.09-8.88,7.76-15.57,11.22a123.81,123.81,0,0,1-18.27,7.53,167.39,167.39,0,0,1-20,5.23A108.79,108.79,0,0,1,113.38,219.73ZM86.25,87.65a22.87,22.87,0,0,0-4.37,7.65A50,50,0,0,0,79.45,112a32.7,32.7,0,0,0,2.38,13,24.81,24.81,0,0,0,4.42,7ZM139,84.15c-1-.41-2.32-.88-3.89-1.4a107.11,107.11,0,0,0-11.78-3.19,41.49,41.49,0,0,0-8.28-1,58.32,58.32,0,0,0-17.88,2.41,28,28,0,0,0-6.85,3.22Z"/></g></g></svg>