<svg xmlns="http://www.w3.org/2000/svg" viewBox="0 0 264.88 286.23"><defs><style>.cls-1{fill:none;stroke:#fff;stroke-miterlimit:10;}</style></defs><g id="Layer_2" data-name="Layer 2"><g id="Layer_1-2" data-name="Layer 1"><path class="cls-1" d="M146.38,285.73c-20.43,0-39.52-3.22-56.75-9.56a139,139,0,0,1-47.15-28.62A129.14,129.14,0,0,1,11,202.19,140.39,140.39,0,0,1,.5,148c0-22.81,3.77-43.58,11.21-61.74A136.25,136.25,0,0,1,44.22,38.2,133.24,133.24,0,0,1,92,9.19,155.46,155.46,0,0,1,143.58.5a174.78,174.78,0,0,1,44.26,5.41,154.8,154.8,0,0,1,36.23,14.2l40.2,22.53L249.82,84.15H260.1V233.21L245.41,249C239,256,230.94,261.87,220.83,267.1a157.12,157.12,0,0,1-23.14,9.58,201.12,201.12,0,0,1-23.89,6.26A142.15,142.15,0,0,1,146.38,285.73Z"/></g></g></svg>