<svg xmlns="http://www.w3.org/2000/svg" viewBox="0 0 216.6 242.23"><defs><style>.cls-1{fill:none;stroke:#fff;stroke-miterlimit:10;}</style></defs><g id="Layer_2" data-name="Layer 2"><g id="Layer_1-2" data-name="Layer 1"><path class="cls-1" d="M124.38,241.73c-17.83,0-34.36-2.76-49.15-8.21a117.17,117.17,0,0,1-39.76-24.06A107.55,107.55,0,0,1,9.31,171.75,118.75,118.75,0,0,1,.5,126c0-19.93,3.22-37.9,9.57-53.4a114.47,114.47,0,0,1,27.24-40.4A111.56,111.56,0,0,1,77.23,8,133.81,133.81,0,0,1,121.58.5a152.79,152.79,0,0,1,38.67,4.69A132.87,132.87,0,0,1,191.31,17.3l24.12,13.52L196.86,84.15H216.1V202.57l-8.82,9.5c-4.67,5-10.74,9.45-18.57,13.5a135.29,135.29,0,0,1-19.89,8.21,178.81,178.81,0,0,1-21.28,5.57A119.68,119.68,0,0,1,124.38,241.73Z"/></g></g></svg>