<svg xmlns="http://www.w3.org/2000/svg" viewBox="0 0 145.87 171.5"><defs><style>.cls-1{fill:#fff;}</style></defs><g id="Layer_2" data-name="Layer 2"><g id="Layer_1-2" data-name="Layer 1"><path class="cls-1" d="M0,171.5V0H51.26q25.88,0,44,7.69t29.25,20.5a82.35,82.35,0,0,1,16.19,28.67,103,103,0,0,1,5.13,31.92q0,19.11-6.88,34.37a78.57,78.57,0,0,1-18.75,26.1,82.51,82.51,0,0,1-27.5,16.54,95.51,95.51,0,0,1-33.09,5.71Zm33.79-32.62h20a75.79,75.79,0,0,0,23.3-3.38,51.32,51.32,0,0,0,18.06-9.91,42.81,42.81,0,0,0,11.65-16.42,59.45,59.45,0,0,0,4.07-22.72q0-16.78-5.47-27.38A45.69,45.69,0,0,0,91.92,42.64a49.74,49.74,0,0,0-16.42-8,57.73,57.73,0,0,0-14.22-2.21H33.79Z"/></g></g></svg>