<svg xmlns="http://www.w3.org/2000/svg" viewBox="0 0 827.74 249.1"><defs><style>.cls-1{fill:#ffdeaf;}.cls-2{fill:none;stroke:#ffdeaf;stroke-miterlimit:10;}</style></defs><g id="Layer_2" data-name="Layer 2"><g id="Layer_1-2" data-name="Layer 1"><text/><path class="cls-1" d="M2.32,1.72H26.37l6.21,44.92c1.32,10.31,2.64,20.61,4,31.18h.53c1.85-10.57,3.83-21,5.82-31.18l10-44.92H72.88L83.05,46.64c2,10,3.7,20.61,5.68,31.18h.66c1.19-10.57,2.51-21,3.7-31.18L99.57,1.72H121.9l-17.05,98.43H75.12L66.27,57.34c-1.58-7.53-2.91-15.46-3.83-22.86h-.53c-1.32,7.4-2.51,15.33-4,22.86l-8.59,42.81H20.16Z"/><path class="cls-1" d="M135.25,1.72h62.36V21.4H158.9V39.64h32.9V59.46H158.9V80.33h40.16v19.82H135.25Z"/><path class="cls-1" d="M218.49,1.72h34.35c20.35,0,36.6,5.55,36.6,24.44,0,8.72-4.89,18.23-12.81,21.27V48c9.9,2.64,17.44,10,17.44,23.12,0,20.09-17.05,29.07-38.45,29.07H218.49Zm33.43,39.11c10,0,14.53-4.36,14.53-11.1,0-7-4.62-9.91-14.53-9.91h-9.78v21Zm2,41.22c11.36,0,17.18-4.1,17.18-12.55,0-8.06-5.69-11.36-17.18-11.36H242.14V82.05Z"/><path class="cls-1" d="M343.43,1.72h28.28c30,0,49.81,14.53,49.81,48.75S401.7,100.15,373,100.15h-29.6Zm26.82,79.41c15.86,0,27.09-7.27,27.09-30.66s-11.23-29.86-27.09-29.86h-3.17V81.13Z"/><path class="cls-1" d="M436.9,1.72h62.37V21.4H460.55V39.64h32.9V59.46h-32.9V80.33h40.17v19.82H436.9Z"/><path class="cls-1" d="M513.93,87.86l13.48-16.25c6.87,6,16,10,23.78,10,8.72,0,12.82-3.3,12.82-8.58,0-5.69-5.42-7.54-13.87-11.1l-12.55-5.29c-10.31-4.09-20-12.68-20-26.95C517.63,13.21,532.43,0,553.31,0a45.74,45.74,0,0,1,32,13l-11.76,14.8c-6.47-4.89-12.55-7.53-20.21-7.53-7.27,0-11.63,2.9-11.63,8.06,0,5.54,6.08,7.66,14.8,11.09l12.29,4.89c12.15,4.89,19.42,13.08,19.42,27,0,16.38-13.74,30.78-37.52,30.78A55,55,0,0,1,513.93,87.86Z"/><path class="cls-1" d="M604.58,1.72h23.65v98.43H604.58Z"/><path class="cls-1" d="M646.33,51.53C646.33,18.76,668.4,0,694.69,0a43.38,43.38,0,0,1,31.44,12.82L713.71,27.88c-4.88-4.36-10-7.66-18.23-7.66-14.53,0-25,11.36-25,30.52,0,19.55,8.72,30.91,27.08,30.91,3.44,0,7.14-.92,9.25-2.51V63.29H691.25V44h36.6V90c-6.87,6.6-19,12-32.77,12C667.87,102,646.33,84.82,646.33,51.53Z"/><path class="cls-1" d="M749.15,1.72H773.2l24.44,47.17,9.65,21.8H808c-1.19-10.44-3.17-24.58-3.17-36.34V1.72h22.46v98.43h-24L778.88,52.72l-9.65-21.54h-.66c1.06,11,3,24.44,3,36.34v32.63H749.15Z"/><path class="cls-1" d="M0,107.83H23.65v78.61H62v19.82H0Z"/><path class="cls-1" d="M94.1,108.6h23.65V207H94.1Z"/><path class="cls-1" d="M139.18,107.05h23.65v39h.4l27.88-39H217l-29.73,39.51,35.28,58.93H196.79l-23.26-40.3-10.7,14.53v25.77H139.18Z"/><path class="cls-1" d="M223.9,106.28h62.36V126H247.55V144.2h32.9V164h-32.9v20.87h40.17v19.82H223.9Z"/><path class="cls-1" d="M374,109.37h28.28l30.52,98.44H407.91l-5.68-22.6H373.16l-5.68,22.6H343.43Zm3.7,57.61h20.08l-2.11-8.32c-2.64-9.78-5.15-21.54-7.79-31.58h-.53c-2.38,10.3-5,21.8-7.53,31.58Z"/><path class="cls-2" d="M460.4,108.36h24.11l6.22,64c1.32,14.68,2.65,29.36,4,44.42h.53c1.86-15.06,3.84-29.93,5.83-44.42l10.06-64h20l10.2,64c2,14.3,3.7,29.36,5.69,44.42h.66c1.19-15.06,2.52-29.93,3.71-44.42l6.49-64h22.38L563.17,248.6h-29.8l-8.87-61c-1.59-10.73-2.91-22-3.84-32.56h-.53c-1.33,10.54-2.52,21.83-4,32.56l-8.61,61H478.28Z"/><path class="cls-2" d="M606.94,105.06H633.7L662.58,248.6H639.07l-5.37-32.95H606.19l-5.38,32.95H578.06Zm3.5,84h19l-2-12.13c-2.5-14.26-4.87-31.41-7.37-46.06h-.5c-2.25,15-4.75,31.8-7.13,46.06Z"/><path class="cls-2" d="M657.37,105.06h25l11.26,64c2.91,15.06,4.9,29.36,7.68,44.8H702c2.92-15.44,4.9-29.74,7.68-44.8l11.13-64h24.1L715.38,245.29H686.91Z"/><path class="cls-2" d="M763.28,105.06h62.5v28H787v26h33v28.24H787v29.74h40.26v28.23h-64Z"/></g></g></svg>