<svg xmlns="http://www.w3.org/2000/svg" viewBox="0 0 644.07 168.72"><defs><style>.cls-1{fill:#1b1f42;}</style></defs><g id="Layer_2" data-name="Layer 2"><g id="Layer_1-2" data-name="Layer 1"><path class="cls-1" d="M0,1.34H18.81l4.86,35.14c1,8.06,2.06,16.12,3.1,24.39h.41c1.45-8.27,3-16.43,4.55-24.39L39.58,1.34H55.19l8,35.14c1.55,7.85,2.9,16.12,4.45,24.39h.51c.93-8.27,2-16.43,2.9-24.39L76.06,1.34H93.53l-13.33,77H56.94L50,44.85C48.78,39,47.75,32.76,47,27h-.41c-1,5.79-2,12-3.1,17.88L36.79,78.34H14Z"/><path class="cls-1" d="M104,1.34h48.78v15.4H122.47V31H148.2V46.5H122.47V62.83h31.41V78.34H104Z"/><path class="cls-1" d="M169.08,1.34H196c15.91,0,28.62,4.34,28.62,19.12,0,6.82-3.82,14.26-10,16.64v.41c7.75,2.07,13.64,7.86,13.64,18.09,0,15.71-13.33,22.74-30.07,22.74h-29Zm26.15,30.59c7.85,0,11.36-3.41,11.36-8.68,0-5.47-3.61-7.75-11.36-7.75h-7.65V31.93Zm1.55,32.25c8.88,0,13.43-3.21,13.43-9.82,0-6.3-4.44-8.89-13.43-8.89h-9.2V64.18Z"/><path class="cls-1" d="M264.57,1.34h22.12c23.46,0,39,11.37,39,38.14s-15.5,38.86-37.93,38.86H264.57Zm21,62.11c12.4,0,21.19-5.68,21.19-24S298,16.12,285.55,16.12h-2.48V63.45Z"/><path class="cls-1" d="M339.91,1.34h48.78v15.4H358.41V31h25.73V46.5H358.41V62.83h31.42V78.34H339.91Z"/><path class="cls-1" d="M400.17,68.72,410.71,56c5.37,4.65,12.5,7.86,18.6,7.86,6.82,0,10-2.59,10-6.72,0-4.44-4.23-5.89-10.85-8.68l-9.82-4.14c-8.06-3.2-15.6-9.92-15.6-21.08C403.06,10.33,414.63,0,431,0a35.77,35.77,0,0,1,25,10.13l-9.2,11.57c-5.06-3.82-9.81-5.89-15.81-5.89-5.68,0-9.09,2.28-9.09,6.31,0,4.34,4.75,6,11.57,8.68l9.61,3.82c9.51,3.82,15.2,10.23,15.2,21.08,0,12.82-10.75,24.08-29.35,24.08A43,43,0,0,1,400.17,68.72Z"/><path class="cls-1" d="M471.06,1.34h18.5v77h-18.5Z"/><path class="cls-1" d="M503.72,40.3C503.72,14.67,521,0,541.54,0a34,34,0,0,1,24.6,10l-9.71,11.79c-3.83-3.41-7.86-6-14.27-6-11.36,0-19.53,8.89-19.53,23.87,0,15.3,6.82,24.19,21.19,24.19a13,13,0,0,0,7.23-2V49.5H538.86V34.41h28.62v36c-5.37,5.16-14.88,9.4-25.63,9.4C520.57,79.78,503.72,66.35,503.72,40.3Z"/><path class="cls-1" d="M583,1.34H601.8l19.12,36.9,7.54,17H629c-.93-8.16-2.48-19.22-2.48-28.42V1.34h17.57v77H625.26l-19-37.11L598.7,24.39h-.52c.83,8.58,2.38,19.12,2.38,28.42V78.34H583Z"/><path class="cls-1" d="M11.25,91.73h18.5v61.49h30v15.5H11.25Z"/><path class="cls-1" d="M73.05,91.73h18.5v77H73.05Z"/><path class="cls-1" d="M109.22,91.73h18.5v30.49H128l21.81-30.49h20.25l-23.25,30.9,27.59,46.09H154.28L136.09,137.2l-8.37,11.37v20.15h-18.5Z"/><path class="cls-1" d="M182.39,91.73h48.78v15.4H200.89v14.26h25.73v15.5H200.89v16.33h31.42v15.5H182.39Z"/><path class="cls-1" d="M285.33,91.73h22.11l23.88,77H311.89l-4.45-17.67H284.71l-4.45,17.67H261.45Zm2.89,45.06h15.71l-1.65-6.51c-2.07-7.65-4-16.85-6.1-24.7h-.42c-1.86,8.06-3.92,17-5.89,24.7Z"/><path class="cls-1" d="M355.71,91.73h18.81l4.85,35.14c1,8.06,2.07,16.12,3.1,24.39h.42c1.44-8.27,3-16.43,4.54-24.39l7.86-35.14h15.6l8,35.14c1.55,7.85,2.89,16.12,4.44,24.39h.52c.93-8.27,2-16.43,2.89-24.39l5.07-35.14h17.46l-13.33,77H412.65l-6.92-33.48c-1.24-5.89-2.28-12.09-3-17.88h-.41c-1,5.79-2,12-3.1,17.88l-6.72,33.48H369.66Z"/><path class="cls-1" d="M473.83,91.73H496l23.87,77H500.39L496,151.05H473.21l-4.44,17.67H450Zm2.9,45.06h15.71l-1.66-6.51c-2.06-7.65-4-16.85-6.09-24.7h-.42c-1.86,8.06-3.92,17-5.89,24.7Z"/><path class="cls-1" d="M515.8,91.73h19.53l8.78,35.14c2.28,8.27,3.83,16.12,6,24.59h.51c2.28-8.47,3.83-16.32,6-24.59l8.68-35.14h18.81l-23.05,77H538.84Z"/><path class="cls-1" d="M592.07,91.73h48.78v15.4H610.57v14.26H636.3v15.5H610.57v16.33H642v15.5H592.07Z"/></g></g></svg>