<svg xmlns="http://www.w3.org/2000/svg" viewBox="0 0 1824 956.66"><defs><style>.cls-1,.cls-3,.cls-5{fill:#fff;}.cls-1{stroke:#ff4514;}.cls-1,.cls-3,.cls-6{stroke-miterlimit:10;}.cls-1,.cls-6,.cls-7{stroke-width:2px;}.cls-2{fill:#ff4514;}.cls-3{stroke:#ffbfb9;}.cls-4,.cls-6,.cls-7{fill:none;stroke:#fff;}.cls-4,.cls-7{stroke-linecap:round;stroke-linejoin:round;}.cls-4{stroke-width:3px;}</style></defs><g id="Layer_2" data-name="Layer 2"><g id="Layer_1-2" data-name="Layer 1"><rect class="cls-1" x="1" y="134.81" width="1822" height="766.01"/><rect class="cls-2" x="1" y="901.81" width="1822" height="54.85"/><path class="cls-2" d="M593.16,53.33a7.23,7.23,0,0,0,.48-6.23L578.19,7.83c-1.81-4.62-8-7.83-15.07-7.83H37.77c-6.6,0-12.49,2.81-14.69,7L2.48,46.29a7.25,7.25,0,0,0,.07,7H1v80.44H1823V53.33Z"/><rect class="cls-3" x="156.74" y="78.77" width="1569.2" height="40.22" rx="5.74"/><polyline class="cls-4" points="42.79 83.92 24.35 98.32 42.79 113.03"/><line class="cls-4" x1="55.37" y1="98.48" x2="24.35" y2="98.32"/><polyline class="cls-4" points="103.54 83.92 125.87 98.32 103.54 113.03"/><line class="cls-4" x1="94.5" y1="98.48" x2="125.87" y2="98.32"/><ellipse class="cls-5" cx="1770.74" cy="98.88" rx="21.49" ry="19.37"/><rect class="cls-6" x="512.62" y="12.75" width="45.75" height="38.51" rx="0.61"/><line class="cls-7" x1="521.67" y1="20.36" x2="549.34" y2="43.65"/><line class="cls-7" x1="549.34" y1="20.36" x2="521.67" y2="43.65"/></g></g></svg>