<svg xmlns="http://www.w3.org/2000/svg" viewBox="0 0 352.13 273.02"><defs><style>.cls-1,.cls-5{fill:#fff;}.cls-1{stroke:#ffbfb9;}.cls-1,.cls-6{stroke-miterlimit:10;}.cls-2{fill:#f9d2cd;}.cls-3{fill:#fcccc5;}.cls-4,.cls-6{fill:none;stroke:#fff;}.cls-4{stroke-linecap:round;stroke-linejoin:round;}</style></defs><g id="Layer_2" data-name="Layer 2"><g id="Layer_1-2" data-name="Layer 1"><rect class="cls-1" x="0.5" y="38.47" width="351.13" height="218.61"/><rect class="cls-2" x="0.5" y="257.37" width="351.13" height="15.65"/><path class="cls-3" d="M114.62,15.22a2.91,2.91,0,0,0,.09-1.78l-3-11.21A3,3,0,0,0,108.83,0H7.59A3,3,0,0,0,4.75,2l-4,11.21a2.89,2.89,0,0,0,0,2H.5v23H351.63v-23Z"/><rect class="cls-1" x="30.51" y="22.48" width="302.41" height="11.48" rx="5.74"/><polyline class="cls-4" points="9.3 23.95 5 28.06 9.3 32.26"/><line class="cls-4" x1="12.24" y1="28.1" x2="5" y2="28.06"/><polyline class="cls-4" points="20.26 23.95 24.57 28.06 20.26 32.26"/><line class="cls-4" x1="17.33" y1="28.1" x2="24.57" y2="28.06"/><circle class="cls-5" cx="342.19" cy="28.22" r="5.53"/><rect class="cls-6" x="95.39" y="3.64" width="10.99" height="10.99" rx="0.61"/><line class="cls-4" x1="97.56" y1="5.81" x2="104.21" y2="12.46"/><line class="cls-4" x1="104.21" y1="5.81" x2="97.56" y2="12.46"/></g></g></svg>